<svg width="100" height="80" viewBox="0 0 100 80" fill="none" xmlns="http://www.w3.org/2000/svg">
<rect width="100" height="80" fill="white"/>
<path d="M30.56 58.76H29V59.792H23V58.76H21.44V63.212H30.56V58.76ZM20.6 65.384H25.22V66.44H21.44V67.676H29V70.04H30.56V66.44H26.78V65.384H31.4V64.112H20.6V65.384ZM23 61.976V61.028H29V61.976H23ZM32.708 62.408L32.948 63.62C35.18 63.44 36.776 63.08 37.736 62.54C39.548 62.828 41.576 63.248 42.692 63.62L43.244 62.48C42.104 62.144 40.244 61.808 38.696 61.628C38.816 61.388 38.876 61.124 38.876 60.848V60.632H42.596V59.36H38.876V58.16H37.244V59.36H33.764V60.632H37.316V60.896C37.316 61.268 36.932 61.58 36.152 61.856C35.372 62.132 34.232 62.312 32.708 62.408ZM32.6 65.624H43.4V64.352H32.6V65.624ZM33.44 67.916H41V70.04H42.56V66.68H33.44V67.916ZM50 63.92C53.024 63.92 54.8 62.984 54.8 61.34C54.8 59.696 53.024 58.76 50 58.76C46.976 58.76 45.2 59.696 45.2 61.34C45.2 62.984 46.976 63.92 50 63.92ZM44.6 65.876H49.46V67.88H51.02V65.876H55.4V64.604H44.6V65.876ZM45.56 69.92H54.68V68.648H47.12V66.728H45.56V69.92ZM46.76 61.34C46.76 60.92 47.048 60.596 47.612 60.368C48.176 60.14 48.968 60.032 50 60.032C51.032 60.032 51.836 60.14 52.4 60.368C52.964 60.596 53.24 60.92 53.24 61.34C53.24 61.76 52.964 62.084 52.4 62.312C51.836 62.54 51.032 62.648 50 62.648C48.968 62.648 48.176 62.54 47.612 62.312C47.048 62.084 46.76 61.76 46.76 61.34ZM62.78 63.932V62.912H66.56V61.676H59V60.152H66.56V58.88H57.44V62.912H61.22V63.932H56.6V65.204H67.4V63.932H62.78ZM57.2 67.94C57.2 68.864 57.98 69.548 59.42 69.896C60.14 70.076 61.004 70.16 62 70.16C64.004 70.16 65.468 69.8 66.236 69.14C66.608 68.804 66.8 68.408 66.8 67.94C66.8 67.244 66.38 66.704 65.54 66.332C64.688 65.96 63.512 65.768 62 65.768C60.488 65.768 59.312 65.96 58.472 66.332C57.62 66.704 57.2 67.244 57.2 67.94ZM58.76 67.94C58.76 67.64 59.048 67.412 59.612 67.244C60.176 67.076 60.98 66.992 62 66.992C63.032 66.992 63.836 67.076 64.4 67.232C64.964 67.4 65.24 67.64 65.24 67.94C65.24 68.24 64.952 68.468 64.388 68.636C63.824 68.804 63.02 68.888 62 68.888C60.98 68.888 60.176 68.804 59.612 68.636C59.048 68.468 58.76 68.24 58.76 67.94ZM78.32 61.304V58.52H76.76V65.24H78.32V62.576H79.88V61.304H78.32ZM68.12 63.848L68.924 64.988C70.352 64.304 71.408 63.548 72.068 62.696C73.16 63.44 74.06 64.208 74.744 64.988L76.064 64.148C75.488 63.368 74.048 62.288 72.716 61.568C72.86 61.184 72.932 60.788 72.932 60.368V60.152H75.488V58.88H68.816V60.152H71.372V60.536C71.372 61.832 70.364 62.78 68.12 63.848ZM69.512 67.748C69.512 69.272 71.156 70.16 73.952 70.16C76.748 70.16 78.392 69.272 78.392 67.748C78.392 66.224 76.748 65.336 73.952 65.336C71.156 65.336 69.512 66.224 69.512 67.748ZM71.072 67.748C71.072 67.376 71.324 67.076 71.84 66.86C72.344 66.644 73.052 66.536 73.952 66.536C74.852 66.536 75.56 66.644 76.076 66.86C76.58 67.076 76.832 67.376 76.832 67.748C76.832 68.12 76.58 68.42 76.076 68.636C75.56 68.852 74.852 68.96 73.952 68.96C73.052 68.96 72.344 68.852 71.84 68.636C71.324 68.42 71.072 68.12 71.072 67.748Z" fill="#601986"/>
<g clip-path="url(#clip0_3_936)">
<path d="M78 49H44.4152V4.03375H78V49ZM46.1054 47.3114H76.3098V5.72231H46.1054V47.3114Z" fill="#601986"/>
<path d="M71.611 49H50.8043V39.1895H71.611V49ZM52.4945 47.3114H69.9207V40.878H52.4945V47.3114Z" fill="#601986"/>
<path d="M66.422 49H56.0102V44.4071H66.422V49ZM57.7004 47.3114H64.7317V46.0957H57.7004V47.3114Z" fill="#601986"/>
<path d="M77.1549 25.681H45.2603V27.3696H77.1549V25.681Z" fill="#601986"/>
<path d="M64.0049 40.6247C63.1598 39.7636 62.2302 39.2739 61.3175 39.3245C59.7117 39.3245 58.4441 40.6078 58.4441 40.6078L57.2271 39.4427C57.2271 39.4427 58.9849 37.6529 61.3175 37.636H61.3344C62.7373 37.636 64.0387 38.2439 65.2219 39.4427L64.0218 40.6247H64.0049Z" fill="#601986"/>
<path d="M71.611 13.8611H50.8043V4.03375H71.611V13.8611ZM52.4945 12.1726H69.9207V5.72231H52.4945V12.1557V12.1726Z" fill="#601986"/>
<path d="M66.422 8.62662H56.0102V4.03375H66.422V8.62662ZM57.7004 6.93807H64.7317V5.72231H57.7004V6.93807Z" fill="#601986"/>
<path d="M61.0977 15.3977C59.6948 15.3977 58.3934 14.7899 57.2102 13.591L58.4103 12.409C59.2554 13.2702 60.1512 13.7092 61.0808 13.7092C62.6865 13.7092 63.9542 12.4259 63.9542 12.4259L65.1712 13.591C65.1712 13.591 63.4133 15.3809 61.0808 15.3977H61.0639H61.0977Z" fill="#601986"/>
<path d="M61.2161 31.7261C58.3427 31.7261 56.0102 29.3959 56.0102 26.5253C56.0102 23.6548 58.3427 21.3246 61.2161 21.3246C64.0894 21.3246 66.422 23.6548 66.422 26.5253C66.422 29.3959 64.0894 31.7261 61.2161 31.7261ZM61.2161 23.0131C59.2723 23.0131 57.7004 24.5835 57.7004 26.5253C57.7004 28.4672 59.2723 30.0375 61.2161 30.0375C63.1598 30.0375 64.7317 28.4672 64.7317 26.5253C64.7317 24.5835 63.1598 23.0131 61.2161 23.0131Z" fill="#601986"/>
<path d="M34.764 17.137C32.9047 17.137 31.3835 15.6173 31.3835 13.7599C31.3835 11.9025 32.9047 10.3828 34.764 10.3828C36.6232 10.3828 38.1444 11.9025 38.1444 13.7599C38.1444 15.6173 36.6232 17.137 34.764 17.137ZM34.764 12.0544C33.8343 12.0544 33.0737 12.8143 33.0737 13.743C33.0737 14.6717 33.8343 15.4315 34.764 15.4315C35.6936 15.4315 36.4542 14.6717 36.4542 13.743C36.4542 12.8143 35.6936 12.0544 34.764 12.0544Z" fill="#601986"/>
<path d="M43.063 22.0844H26.465V10.1295C25.5015 9.53846 24.9099 8.47467 24.9099 7.30957C24.9099 5.48593 26.3973 4 28.2228 4C29.3552 4 30.3863 4.57411 30.9948 5.48593H43.0799V22.0844H43.063ZM28.1552 20.3959H41.3728V7.17448H29.9299L29.7102 6.66792C29.4567 6.07692 28.8651 5.68856 28.2228 5.68856C27.327 5.68856 26.6002 6.41463 26.6002 7.30957C26.6002 7.98499 27.0058 8.57598 27.6312 8.81238L28.1721 9.0319V20.379L28.1552 20.3959ZM39.2938 20.3283H29.9637L29.7778 19.7205C29.6257 19.2308 29.2538 18.8255 28.7637 18.6567L28.2059 18.454V9.04878L28.7637 8.84615C29.2538 8.6773 29.6257 8.27205 29.7778 7.78236L29.9637 7.17448H39.2938L39.4797 7.78236C39.6487 8.33959 40.1051 8.76173 40.6798 8.89681L41.339 9.04878V18.4709L40.6798 18.6229C40.1051 18.758 39.6487 19.1801 39.4797 19.7373L39.2938 20.3283ZM31.1469 18.6398H38.1106C38.4487 17.9981 38.9895 17.4916 39.6487 17.1876V10.3321C38.9895 10.0281 38.4487 9.52158 38.1106 8.87993H31.1469C30.8595 9.42026 30.4201 9.87617 29.8792 10.1801V17.3227C30.4201 17.6266 30.8426 18.0826 31.1469 18.6229V18.6398Z" fill="#601986"/>
<path d="M28.2059 7.46158C28.2806 7.46158 28.3411 7.4011 28.3411 7.32649C28.3411 7.25189 28.2806 7.19141 28.2059 7.19141C28.1312 7.19141 28.0707 7.25189 28.0707 7.32649C28.0707 7.4011 28.1312 7.46158 28.2059 7.46158Z" fill="white"/>
<path d="M28.2059 8.30583C27.665 8.30583 27.2256 7.86681 27.2256 7.32647C27.2256 6.78613 27.665 6.34711 28.2059 6.34711C28.7468 6.34711 29.1862 6.78613 29.1862 7.32647C29.1862 7.86681 28.7468 8.30583 28.2059 8.30583ZM28.2059 6.61728C27.8171 6.61728 27.496 6.9381 27.496 7.32647C27.496 7.71484 27.8171 8.03566 28.2059 8.03566C28.5946 8.03566 28.9158 7.71484 28.9158 7.32647C28.9158 6.9381 28.5946 6.61728 28.2059 6.61728Z" fill="#601986"/>
<path d="M34.764 13.9118C34.8387 13.9118 34.8992 13.8514 34.8992 13.7767C34.8992 13.7021 34.8387 13.6417 34.764 13.6417C34.6893 13.6417 34.6288 13.7021 34.6288 13.7767C34.6288 13.8514 34.6893 13.9118 34.764 13.9118Z" fill="white"/>
<path d="M34.764 14.7561C34.2231 14.7561 33.7837 14.3171 33.7837 13.7767C33.7837 13.2364 34.2231 12.7974 34.764 12.7974C35.3049 12.7974 35.7443 13.2364 35.7443 13.7767C35.7443 14.3171 35.3049 14.7561 34.764 14.7561ZM34.764 13.0675C34.3752 13.0675 34.0541 13.3884 34.0541 13.7767C34.0541 14.1651 34.3752 14.4859 34.764 14.4859C35.1527 14.4859 35.4739 14.1651 35.4739 13.7767C35.4739 13.3884 35.1527 13.0675 34.764 13.0675Z" fill="#601986"/>
<path d="M26.2621 41.7899H23.8451C23.3719 41.7899 23 41.4184 23 40.9456V29.8518C23 29.379 23.3719 29.0075 23.8451 29.0075H26.2621C26.7354 29.0075 27.1073 29.379 27.1073 29.8518V40.9456C27.1073 41.4184 26.7354 41.7899 26.2621 41.7899ZM24.6902 40.1013H25.417V30.6961H24.6902V40.1013Z" fill="#601986"/>
<path d="M27.3101 49C26.8368 49 26.465 48.6285 26.465 48.1557V21.2402C26.465 20.7674 26.8368 20.3959 27.3101 20.3959C27.7833 20.3959 28.1552 20.7674 28.1552 21.2402V48.1726C28.1552 48.6454 27.7833 49.0169 27.3101 49.0169V49Z" fill="#601986"/>
</g>
<defs>
<clipPath id="clip0_3_936">
<rect width="55" height="45" fill="white" transform="translate(23 4)"/>
</clipPath>
</defs>
</svg>
