<svg width="100" height="80" viewBox="0 0 100 80" fill="none" xmlns="http://www.w3.org/2000/svg">
<rect width="100" height="80" fill="white"/>
<g clip-path="url(#clip0_3_597)">
<path d="M87.061 26.0459V36.7828L58.3219 35.2513V19.7702L87.061 26.0459Z" fill="white"/>
<path d="M87.061 37.715C87.061 37.715 87.0275 37.715 87.0107 37.715L58.2884 36.1835C57.7854 36.1502 57.3997 35.7507 57.3997 35.2513V19.7702C57.3997 19.4872 57.5339 19.2209 57.7518 19.0378C57.9698 18.8546 58.2716 18.7881 58.5399 18.8546L87.2622 25.1303C87.6982 25.2302 88 25.6131 88 26.0459V36.7828C88 37.0325 87.8994 37.2822 87.6982 37.4653C87.5137 37.6317 87.2958 37.715 87.0443 37.715H87.061ZM59.2777 34.3691L86.1053 35.8006V26.8116L59.2777 20.9521V34.3691Z" fill="#601986"/>
<path d="M13.939 37.0991L58.3219 19.7702V35.2513L24.3179 41.9265L24.385 47.8027L13.939 47.3699V37.0991Z" fill="white"/>
<path d="M24.385 48.7349H24.3514L13.9054 48.3021C13.4024 48.2854 13 47.8692 13 47.3699V37.099C13 36.7162 13.2347 36.3666 13.6036 36.2334L57.9866 18.8879C58.2716 18.7714 58.607 18.8047 58.8585 18.9878C59.11 19.1709 59.2777 19.4539 59.2777 19.7702V35.2513C59.2777 35.7008 58.9591 36.0836 58.5231 36.1668L25.2904 42.6922L25.3575 47.7694C25.3575 48.0357 25.2569 48.2688 25.0724 48.4519C24.888 48.6183 24.6533 48.7182 24.4185 48.7182L24.385 48.7349ZM14.8779 46.471L23.4125 46.8205L23.3622 41.9431C23.3622 41.4937 23.6808 41.0942 24.1167 41.0109L57.3662 34.4856V21.1352L14.8947 37.7316V46.471H14.8779Z" fill="#601986"/>
<path d="M29.8344 48.9513C29.3146 48.9513 28.8954 48.5351 28.8954 48.0191V40.8445C28.8954 40.3285 29.3146 39.9123 29.8344 39.9123C30.3541 39.9123 30.7733 40.3285 30.7733 40.8445V48.0191C30.7733 48.5351 30.3541 48.9513 29.8344 48.9513Z" fill="#601986"/>
<path d="M35.6861 49.0511C35.1663 49.0511 34.7471 48.635 34.7471 48.1189V39.7125C34.7471 39.1965 35.1663 38.7803 35.6861 38.7803C36.2059 38.7803 36.6251 39.1965 36.6251 39.7125V48.1189C36.6251 48.635 36.2059 49.0511 35.6861 49.0511Z" fill="#601986"/>
<path d="M43.7847 49.5339C43.2649 49.5339 42.8458 49.1178 42.8458 48.6017V38.1145C42.8458 37.5985 43.2649 37.1823 43.7847 37.1823C44.3045 37.1823 44.7237 37.5985 44.7237 38.1145V48.6017C44.7237 49.1178 44.3045 49.5339 43.7847 49.5339Z" fill="#601986"/>
<path d="M55.0188 50C54.499 50 54.0798 49.5838 54.0798 49.0678V35.9172C54.0798 35.4011 54.499 34.985 55.0188 34.985C55.5386 34.985 55.9578 35.4011 55.9578 35.9172V49.0678C55.9578 49.5838 55.5386 50 55.0188 50Z" fill="#601986"/>
<path d="M65.3307 49.5339C64.8109 49.5339 64.3917 49.1177 64.3917 48.6017V35.6342C64.3917 35.1181 64.8109 34.702 65.3307 34.702C65.8504 34.702 66.2696 35.1181 66.2696 35.6342V48.6017C66.2696 49.1177 65.8504 49.5339 65.3307 49.5339Z" fill="#601986"/>
<path d="M75.4581 48.7349C74.9383 48.7349 74.5191 48.3187 74.5191 47.8027V36.1669C74.5191 35.6508 74.9383 35.2347 75.4581 35.2347C75.9779 35.2347 76.397 35.6508 76.397 36.1669V47.8027C76.397 48.3187 75.9779 48.7349 75.4581 48.7349Z" fill="#601986"/>
<path d="M82.6177 48.3021C82.0979 48.3021 81.6787 47.8859 81.6787 47.3699V36.5497C81.6787 36.0337 82.0979 35.6176 82.6177 35.6176C83.1375 35.6176 83.5567 36.0337 83.5567 36.5497V47.3699C83.5567 47.8859 83.1375 48.3021 82.6177 48.3021Z" fill="#601986"/>
<path d="M58.3219 39.929V44.6565L33.5902 47.1701L32.4165 48.069L28.0067 47.9359L31.4608 44.1238L58.3219 39.929Z" fill="white"/>
<path d="M32.4165 49.0012H32.383L27.9732 48.8847C27.6043 48.8847 27.2689 48.6517 27.1348 48.3187C26.9839 47.9858 27.051 47.5863 27.3025 47.32L30.7565 43.5079C30.9074 43.3415 31.0919 43.2416 31.3098 43.2083L58.1878 39.0134C58.4561 38.9635 58.7411 39.0467 58.9423 39.2298C59.1435 39.4129 59.2777 39.6626 59.2777 39.9456V44.6732C59.2777 45.1559 58.9088 45.5554 58.4225 45.6054L33.9591 48.0857L32.9866 48.8181C32.8189 48.9347 32.6177 49.0179 32.4165 49.0179V49.0012ZM30.0858 47.0536L32.1147 47.1036L33.0369 46.4044C33.171 46.3045 33.3387 46.2379 33.5064 46.2213L57.3997 43.7909V41.011L31.947 44.9895L30.0858 47.0536V47.0536Z" fill="#601986"/>
<path d="M87.061 40.8778L58.3219 39.929V44.6565H87.061V40.8778Z" fill="white"/>
<path d="M87.061 45.5887H58.3387C57.8189 45.5887 57.3997 45.1726 57.3997 44.6565V39.929C57.3997 39.6793 57.5003 39.4296 57.6848 39.2465C57.8692 39.0634 58.1207 38.9635 58.3722 38.9801L87.0946 39.9123C87.5976 39.929 88 40.3451 88 40.8445V44.6232C88 45.1393 87.5808 45.5554 87.061 45.5554V45.5887ZM59.2777 43.7077H86.1053V41.7767L59.2777 40.8945V43.7077Z" fill="#601986"/>
<path d="M32.2656 12.8453V25.6963L61.2226 23.3325V9.93219L32.2656 12.8453Z" fill="white"/>
<path d="M32.2656 26.6285C32.0308 26.6285 31.7961 26.5452 31.6284 26.3788C31.4272 26.1957 31.3266 25.946 31.3266 25.6963V12.8453C31.3266 12.3625 31.6955 11.963 32.1817 11.9131L61.122 8.99997C61.3903 8.96668 61.6586 9.06656 61.843 9.23302C62.0275 9.39948 62.1616 9.66582 62.1616 9.93217V23.3325C62.1616 23.8152 61.7927 24.2314 61.2897 24.2647L32.3494 26.6285C32.3494 26.6285 32.2991 26.6285 32.2656 26.6285V26.6285ZM33.2045 13.6942V24.6808L60.2669 22.4669V10.9809L33.2213 13.6942H33.2045Z" fill="#601986"/>
<path d="M32.2656 25.6963L39.1569 31.2895L58.3219 24.6476L61.2226 25.097V23.3325L32.2656 25.6963Z" fill="#601986"/>
<path d="M39.1569 32.2217C38.9389 32.2217 38.7377 32.1551 38.5533 32.0053L31.662 26.4121C31.3601 26.1624 31.2428 25.7795 31.3601 25.4133C31.4775 25.0471 31.7961 24.7808 32.1817 24.7641L61.122 22.4003C61.3736 22.4003 61.6418 22.4669 61.843 22.65C62.0442 22.8331 62.1448 23.0828 62.1448 23.3325V25.1137C62.1448 25.3967 62.0275 25.6464 61.8095 25.8295C61.6083 26.0126 61.3233 26.0792 61.055 26.0459L58.4057 25.6297L39.4587 32.1884C39.3581 32.2217 39.2575 32.2383 39.1402 32.2383L39.1569 32.2217ZM34.6801 26.4454L39.3414 30.2241L55.0858 24.7641L34.6633 26.4288L34.6801 26.4454Z" fill="#601986"/>
<path d="M33.8752 24.6642C33.6405 24.6642 33.4058 24.581 33.2381 24.4145C33.0536 24.2314 32.9363 23.9817 32.9363 23.732V14.4434C32.9363 13.9606 33.3052 13.5611 33.7914 13.5112C33.7914 13.5112 59.7304 10.881 59.7639 10.881C59.9987 10.881 60.2166 10.9643 60.4011 11.1307C60.6023 11.3138 60.7196 11.5635 60.7196 11.8299V21.8177C60.7196 22.3004 60.334 22.7166 59.8477 22.7499C59.8477 22.7499 33.9255 24.6642 33.9088 24.6642H33.8752Z" fill="white"/>
<path d="M59.7639 11.8132V21.8177L33.892 23.732V14.4434L59.7639 11.8132ZM59.7639 9.93219C59.7639 9.93219 59.6298 9.93219 59.5795 9.93219L33.7076 12.5623C32.7519 12.6622 32.0141 13.4612 32.0141 14.4267V23.6987C32.0141 24.2148 32.2321 24.7142 32.6177 25.0804C32.9698 25.3967 33.4226 25.5798 33.9088 25.5798C33.9591 25.5798 34.0094 25.5798 34.0429 25.5798L59.9148 23.6654C60.9041 23.5989 61.6586 22.7832 61.6586 21.801V11.8132C61.6586 11.2805 61.4239 10.7812 61.0382 10.4149C60.6861 10.0987 60.2334 9.93219 59.7807 9.93219H59.7639Z" fill="#601986"/>
</g>
<path d="M27.224 62.384C27.224 61.82 27.068 61.328 26.744 60.92H27.488V59.72H24.8V58.4H23.168V59.72H20.48V60.92H21.224C20.9 61.328 20.744 61.82 20.744 62.384C20.744 63.956 22.004 65.048 23.984 65.048C25.964 65.048 27.224 63.956 27.224 62.384ZM21.8 67.244H28.76V70.16H30.32V66.008H21.8V67.244ZM22.304 62.384C22.304 61.52 22.94 60.92 23.984 60.92C25.028 60.92 25.664 61.52 25.664 62.384C25.664 63.248 25.028 63.848 23.984 63.848C22.94 63.848 22.304 63.248 22.304 62.384ZM28.76 65.492H30.32V62.696H31.88V61.424H30.32V58.52H28.76V65.492ZM37.82 61.028C39.392 61.364 41.3 61.904 42.488 62.348L43.244 61.316C42.152 60.884 40.292 60.416 38.672 60.128C38.804 59.876 38.876 59.588 38.876 59.288V58.76H37.244V59.336C37.244 59.852 36.872 60.236 36.116 60.512C35.36 60.788 34.232 60.992 32.708 61.124L33.008 62.3C35.24 62.108 36.848 61.688 37.82 61.028ZM32.6 64.172H37.22V65.216H33.44V66.356H41V67.028H33.44V70.04H42.68V68.9H35V68.168H42.56V65.216H38.78V64.172H43.4V62.972H32.6V64.172ZM54.56 58.88H45.44V63.752H54.56V58.88ZM44.6 65.936H49.46V67.88H51.02V65.936H55.4V64.664H44.6V65.936ZM45.56 69.92H54.68V68.648H47.12V66.848H45.56V69.92ZM47 62.48V60.152H53V62.48H47ZM56.864 62.9C56.864 64.808 58.136 65.96 59.984 65.96C61.832 65.96 63.104 64.808 63.104 62.9C63.104 62.192 62.936 61.604 62.612 61.112H63.488V59.84H60.8V58.52H59.168V59.84H56.48V61.112H57.356C57.032 61.604 56.864 62.192 56.864 62.9ZM56.6 69.284H61.796C62.792 69.284 63.788 69.176 64.76 68.948V70.28H66.32V64.616H67.88V63.344H66.32V58.52H64.76V67.676C63.788 67.904 62.792 68.012 61.796 68.012H60.764V66.44H59.204V68.012H56.6V69.284ZM58.424 62.9C58.424 61.808 59.036 61.112 59.984 61.112C60.932 61.112 61.544 61.808 61.544 62.9C61.544 63.992 60.932 64.688 59.984 64.688C59.036 64.688 58.424 63.992 58.424 62.9ZM78.32 62.384V58.52H76.76V64.196C76.1 64.352 75.416 64.448 74.708 64.496C74.876 62.996 74.96 61.544 74.96 60.152V58.88H69.08V60.152H73.4C73.4 61.544 73.328 63.008 73.184 64.532H71.924V61.64H70.364V64.532H68.6V65.804H73.796C74.792 65.804 75.788 65.696 76.76 65.468V66.944H78.32V63.656H79.88V62.384H78.32ZM69.68 69.8H78.56V68.528H71.24V66.584H69.68V69.8Z" fill="#601986"/>
<defs>
<clipPath id="clip0_3_597">
<rect width="75" height="41" fill="white" transform="translate(13 9)"/>
</clipPath>
</defs>
</svg>
